<svg xmlns="http://www.w3.org/2000/svg" viewBox="0 0 64 64">
  <defs>
    <linearGradient id="bg" x1="8" y1="6" x2="56" y2="58" gradientUnits="userSpaceOnUse">
      <stop stop-color="#17112d"/>
      <stop offset="1" stop-color="#050713"/>
    </linearGradient>
    <linearGradient id="grape" x1="19" y1="20" x2="46" y2="52" gradientUnits="userSpaceOnUse">
      <stop stop-color="#d95cff"/>
      <stop offset="1" stop-color="#6723c9"/>
    </linearGradient>
    <linearGradient id="leaf" x1="30" y1="7" x2="51" y2="25" gradientUnits="userSpaceOnUse">
      <stop stop-color="#46e6ee"/>
      <stop offset="1" stop-color="#00a6d8"/>
    </linearGradient>
  </defs>
  <rect x="2" y="2" width="60" height="60" rx="14" fill="url(#bg)" stroke="#38305e" stroke-width="2"/>
  <path d="M32 20c1-7 6-11 12-12-1 7-5 12-12 12Z" fill="url(#leaf)" stroke="#b9f8ff" stroke-width="1.5"/>
  <path d="M31 20c-1-6-5-10-9-12" fill="none" stroke="#c9eef4" stroke-width="3" stroke-linecap="round"/>
  <g fill="url(#grape)" stroke="#f3ceff" stroke-width="1.3">
    <circle cx="24" cy="25" r="7"/>
    <circle cx="34" cy="25" r="7"/>
    <circle cx="43" cy="27" r="7"/>
    <circle cx="20" cy="35" r="7"/>
    <circle cx="30" cy="35" r="7"/>
    <circle cx="40" cy="37" r="7"/>
    <circle cx="26" cy="45" r="7"/>
    <circle cx="36" cy="46" r="7"/>
    <circle cx="31" cy="54" r="6"/>
  </g>
  <circle cx="22" cy="23" r="2" fill="#fff" opacity=".75"/>
</svg>
